Coordinates
version=1
nRows=54
nColumns=12
inDegrees=yes

Units are S.I. units (second, meters, Newtons, ...)
Angles are in degrees

endheader
time	SC_y	SC_z	SC_x	AC_y	AC_z	AC_x	GH_y	GH_z	GH_yy	EL_x	PS_y
       0.0              -54.84          3.505          33.56          65.43         -4.947         -9.856         0.8733          6.945          53.14          86.85          154.9
   0.02708              -54.84          3.505          33.56          65.43         -4.946         -9.853         0.8705          6.955          53.11          86.85          154.9
   0.05416              -54.83          3.504          33.56          65.43         -4.945         -9.851         0.8675          6.966          53.08          86.85          154.9
   0.08124              -54.83          3.504          33.55          65.42         -4.944         -9.848         0.8643          6.977          53.05          86.84          154.9
    0.1083              -54.82          3.504          33.55          65.42         -4.943         -9.844          0.861          6.989          53.01          86.84          154.9
    0.1354              -54.82          3.504          33.54          65.42         -4.942         -9.841         0.8574          7.002          52.97          86.84          154.9
    0.1625              -54.81          3.503          33.54          65.41         -4.941         -9.837         0.8535          7.016          52.94          86.84          154.9
    0.1896              -54.81          3.503          33.53          65.41          -4.94         -9.833         0.8494           7.03          52.89          86.83          154.9
    0.2166               -54.8          3.503          33.52          65.41         -4.938         -9.829          0.845          7.046          52.85          86.83          154.9
    0.2437              -54.79          3.502          33.52           65.4         -4.937         -9.825         0.8403          7.063           52.8          86.83          154.9
    0.2708              -54.78          3.502          33.51           65.4         -4.935          -9.82         0.8352          7.081          52.75          86.82          154.9
    0.2979              -54.77          3.501           33.5          65.39         -4.933         -9.815         0.8298            7.1          52.69          86.82          154.8
     0.325              -54.76          3.501          33.49          65.39         -4.932         -9.809         0.8239          7.121          52.64          86.81          154.8
     0.352              -54.75            3.5          33.48          65.38          -4.93         -9.803         0.8175          7.144          52.57          86.81          154.8
    0.3791              -54.74            3.5          33.47          65.38         -4.927         -9.797         0.8107          7.169           52.5           86.8          154.8
    0.4062              -54.73          3.499          33.46          65.37         -4.925         -9.789         0.8032          7.195          52.43          86.79          154.8
    0.4333              -54.72          3.499          33.45          65.36         -4.922         -9.782         0.7951          7.224          52.34          86.79          154.8
    0.4604              -54.71          3.498          33.44          65.36          -4.92         -9.773         0.7863          7.256          52.25          86.78          154.8
    0.4874              -54.69          3.497          33.42          65.35         -4.917         -9.764         0.7766           7.29          52.16          86.77          154.7
    0.5145              -54.67          3.496          33.41          65.34         -4.913         -9.754         0.7661          7.328          52.05          86.76          154.7
    0.5416              -54.65          3.495          33.39          65.33          -4.91         -9.743         0.7545          7.369          51.93          86.75          154.7
    0.5687              -54.63          3.494          33.37          65.32         -4.905         -9.731         0.7417          7.415           51.8          86.74          154.7
    0.5958              -54.61          3.493          33.35           65.3         -4.901         -9.718         0.7276          7.465          51.66          86.73          154.6
    0.6228              -54.59          3.492          33.33          65.29         -4.896         -9.703          0.712          7.521           51.5          86.72          154.6
    0.6499              -54.56           3.49           33.3          65.28         -4.891         -9.686         0.6947          7.583          51.33          86.71          154.6
     0.677              -54.53          3.489          33.28          65.26         -4.884         -9.668         0.6753          7.652          51.13          86.69          154.5
    0.7041               -54.5          3.487          33.25          65.24         -4.877         -9.647         0.6536          7.729          50.91          86.67          154.5
    0.7312              -54.46          3.485          33.21          65.22          -4.87         -9.624         0.6292          7.816          50.66          86.65          154.5
    0.7582              -54.41          3.483          33.17           65.2         -4.861         -9.598         0.6016          7.915          50.38          86.63          154.4
    0.7853              -54.36           3.48          33.12          65.17         -4.851         -9.568         0.5703          8.026          50.07           86.6          154.3
    0.8124              -54.31          3.477          33.07          65.14          -4.84         -9.534         0.5346          8.154           49.7          86.57          154.3
    0.8395              -54.24          3.474          33.01           65.1         -4.827         -9.495         0.4936            8.3          49.29          86.54          154.2
    0.8666              -54.17           3.47          32.94          65.06         -4.812          -9.45         0.4463          8.469          48.81           86.5          154.1
    0.8936              -54.08          3.465          32.86          65.01         -4.794         -9.398         0.3913          8.666          48.25          86.46          154.0
    0.9207              -53.98           3.46          32.77          64.96         -4.774         -9.337         0.3269          8.896           47.6           86.4          153.9
    0.9478              -53.86          3.454          32.66          64.89          -4.75         -9.265          0.251          9.166          46.83          86.34          153.7
    0.9749              -53.71          3.446          32.53          64.81         -4.721         -9.179         0.1608          9.488          45.92          86.27          153.5
     1.002              -53.54          3.438          32.37          64.72         -4.687         -9.076        0.05276          9.874          44.82          86.18          153.3
     1.029              -53.34          3.427          32.18          64.61         -4.645         -8.952         -0.078          10.34           43.5          86.07          153.1
     1.056              -53.08          3.414          31.95          64.47         -4.595           -8.8        -0.2377          10.91          41.88          85.94          152.8
     1.083              -52.77          3.397          31.66           64.3         -4.532         -8.613        -0.4349          11.61          39.88          85.78          152.4
      1.11              -52.38          3.377          31.31          64.08         -4.454          -8.38        -0.6807          12.49          37.39          85.57          151.9
     1.137              -51.89          3.352          30.85          63.81         -4.356         -8.085        -0.9904           13.6          34.25          85.32          151.3
     1.164              -51.27          3.319          30.28          63.47         -4.231         -7.711         -1.384           15.0          30.27           85.0          150.5
     1.192              -50.47          3.278          29.55          63.04         -4.071         -7.233         -1.888           16.8          25.16          84.58          149.6
     1.219              -49.45          3.225          28.61          62.47         -3.865         -6.618         -2.535          19.11          18.61          84.05          148.3
     1.246              -48.14          3.157          27.41          61.76         -3.603         -5.833         -3.361          22.06          10.24          83.37          146.7
     1.273              -46.49          3.072           25.9          60.86         -3.273         -4.847         -4.399          25.77        -0.2811          82.52          144.7
       1.3              -44.49          2.968          24.06          59.76         -2.871         -3.644         -5.665          30.28          -13.1          81.48          142.2
     1.327              -42.17          2.847          21.93          58.49         -2.406          -2.25         -7.132          35.52         -27.97          80.27          139.4
     1.354              -39.65          2.717          19.62          57.11         -1.901        -0.7412         -8.721          41.19         -44.06          78.96          136.3
     1.381              -37.14          2.586          17.31          55.73         -1.397         0.7681         -10.31          46.86         -60.15          77.66          133.2
     1.408              -34.81          2.466          15.17          54.46        -0.9313          2.162         -11.78           52.1         -75.02          76.45          130.3
     1.435              -32.81          2.362          13.33          53.36        -0.5294          3.364         -13.04          56.62         -87.84          75.41          127.9
